<mxfile host="app.diagrams.net" modified="2022-12-25T04:02:47.310Z" agent="5.0 (Windows NT 10.0; Win64; x64) AppleWebKit/537.36 (KHTML, like Gecko) Chrome/108.0.0.0 Safari/537.36 Edg/108.0.1462.54" version="20.7.4" etag="3HEXsSa_STYPGWFmqLnt" type="github">
  <diagram id="lL5DCTW0wDwHLhGkDPa4" name="Page-1">
    <mxGraphModel dx="1844" dy="1091" grid="1" gridSize="10" guides="1" tooltips="1" connect="1" arrows="1" fold="1" page="0" pageScale="1" pageWidth="850" pageHeight="1100" math="0" shadow="0">
      <root>
        <mxCell id="0" />
        <mxCell id="1" parent="0" />
        <mxCell id="LjDqyU6sl79YPEdCEnpi-1" value="" style="verticalLabelPosition=bottom;html=1;verticalAlign=top;align=center;strokeColor=none;fillColor=#00BEF2;shape=mxgraph.azure.github_code;pointerEvents=1;" vertex="1" parent="1">
          <mxGeometry x="80" y="120" width="100" height="100" as="geometry" />
        </mxCell>
        <mxCell id="LjDqyU6sl79YPEdCEnpi-2" value="&lt;p style=&quot;line-height: 140%;&quot;&gt;&lt;font style=&quot;font-size: 14px;&quot;&gt;GitHub storing Kubernetes manifest files&lt;/font&gt;&lt;/p&gt;" style="text;strokeColor=none;align=center;fillColor=none;html=1;verticalAlign=middle;whiteSpace=wrap;rounded=0;fontFamily=Montserrat Medium;fontSource=https%3A%2F%2Ffonts.googleapis.com%2Fcss%3Ffamily%3DMontserrat%2BMedium;fontColor=#66B2FF;" vertex="1" parent="1">
          <mxGeometry x="30" y="230" width="200" height="30" as="geometry" />
        </mxCell>
        <mxCell id="LjDqyU6sl79YPEdCEnpi-3" value="" style="endArrow=classic;html=1;rounded=0;fontSize=14;exitX=0.5;exitY=0;exitDx=0;exitDy=0;exitPerimeter=0;" edge="1" parent="1" source="LjDqyU6sl79YPEdCEnpi-24">
          <mxGeometry width="50" height="50" relative="1" as="geometry">
            <mxPoint x="130" y="440" as="sourcePoint" />
            <mxPoint x="129.5" y="270" as="targetPoint" />
          </mxGeometry>
        </mxCell>
        <mxCell id="LjDqyU6sl79YPEdCEnpi-4" value="&lt;p style=&quot;line-height: 140%;&quot;&gt;&lt;span style=&quot;font-size: 14px;&quot;&gt;new code pushed to GitHub&lt;/span&gt;&lt;/p&gt;" style="text;strokeColor=none;align=center;fillColor=none;html=1;verticalAlign=middle;whiteSpace=wrap;rounded=0;fontFamily=Montserrat Medium;fontSource=https%3A%2F%2Ffonts.googleapis.com%2Fcss%3Ffamily%3DMontserrat%2BMedium;fontStyle=2" vertex="1" parent="1">
          <mxGeometry x="-10" y="350" width="130" height="30" as="geometry" />
        </mxCell>
        <mxCell id="LjDqyU6sl79YPEdCEnpi-5" value="" style="endArrow=classic;html=1;rounded=0;fontSize=14;fontColor=#66B2FF;" edge="1" parent="1">
          <mxGeometry width="50" height="50" relative="1" as="geometry">
            <mxPoint x="190" y="169.5" as="sourcePoint" />
            <mxPoint x="520" y="170" as="targetPoint" />
          </mxGeometry>
        </mxCell>
        <mxCell id="LjDqyU6sl79YPEdCEnpi-6" value="&lt;p style=&quot;line-height: 140%;&quot;&gt;&lt;span style=&quot;font-size: 14px;&quot;&gt;notification sent to argo eventsource by GitHub webhook&lt;/span&gt;&lt;/p&gt;" style="text;strokeColor=none;align=center;fillColor=none;html=1;verticalAlign=middle;whiteSpace=wrap;rounded=0;fontFamily=Montserrat Medium;fontSource=https%3A%2F%2Ffonts.googleapis.com%2Fcss%3Ffamily%3DMontserrat%2BMedium;fontStyle=2" vertex="1" parent="1">
          <mxGeometry x="230" y="130" width="240" height="30" as="geometry" />
        </mxCell>
        <mxCell id="LjDqyU6sl79YPEdCEnpi-7" value="" style="sketch=0;html=1;dashed=0;whitespace=wrap;fillColor=#2875E2;strokeColor=#ffffff;points=[[0.005,0.63,0],[0.1,0.2,0],[0.9,0.2,0],[0.5,0,0],[0.995,0.63,0],[0.72,0.99,0],[0.5,1,0],[0.28,0.99,0]];verticalLabelPosition=bottom;align=center;verticalAlign=top;shape=mxgraph.kubernetes.icon;prIcon=pod;fontSize=14;fontColor=#66B2FF;" vertex="1" parent="1">
          <mxGeometry x="540" y="116" width="100" height="108" as="geometry" />
        </mxCell>
        <mxCell id="LjDqyU6sl79YPEdCEnpi-8" value="&lt;p style=&quot;line-height: 140%;&quot;&gt;&lt;span style=&quot;font-size: 14px;&quot;&gt;argo eventsource listening for event&lt;/span&gt;&lt;/p&gt;" style="text;strokeColor=none;align=center;fillColor=none;html=1;verticalAlign=middle;whiteSpace=wrap;rounded=0;fontFamily=Montserrat Medium;fontSource=https%3A%2F%2Ffonts.googleapis.com%2Fcss%3Ffamily%3DMontserrat%2BMedium;fontStyle=0;fontColor=#66B2FF;" vertex="1" parent="1">
          <mxGeometry x="507.5" y="224" width="165" height="40" as="geometry" />
        </mxCell>
        <mxCell id="LjDqyU6sl79YPEdCEnpi-9" value="" style="endArrow=none;html=1;rounded=0;fontSize=14;fontColor=#66B2FF;" edge="1" parent="1">
          <mxGeometry width="50" height="50" relative="1" as="geometry">
            <mxPoint x="590" y="440" as="sourcePoint" />
            <mxPoint x="589.5" y="270" as="targetPoint" />
          </mxGeometry>
        </mxCell>
        <mxCell id="LjDqyU6sl79YPEdCEnpi-10" value="" style="sketch=0;html=1;dashed=0;whitespace=wrap;fillColor=#2875E2;strokeColor=#ffffff;points=[[0.005,0.63,0],[0.1,0.2,0],[0.9,0.2,0],[0.5,0,0],[0.995,0.63,0],[0.72,0.99,0],[0.5,1,0],[0.28,0.99,0]];verticalLabelPosition=bottom;align=center;verticalAlign=top;shape=mxgraph.kubernetes.icon;prIcon=pod;fontSize=14;fontColor=#66B2FF;" vertex="1" parent="1">
          <mxGeometry x="540" y="440" width="100" height="108" as="geometry" />
        </mxCell>
        <mxCell id="LjDqyU6sl79YPEdCEnpi-11" value="&lt;p style=&quot;line-height: 140%;&quot;&gt;&lt;span style=&quot;font-size: 14px;&quot;&gt;sensor watching the eventsource&lt;/span&gt;&lt;/p&gt;" style="text;strokeColor=none;align=center;fillColor=none;html=1;verticalAlign=middle;whiteSpace=wrap;rounded=0;fontFamily=Montserrat Medium;fontSource=https%3A%2F%2Ffonts.googleapis.com%2Fcss%3Ffamily%3DMontserrat%2BMedium;fontStyle=0;fontColor=#66B2FF;" vertex="1" parent="1">
          <mxGeometry x="507.5" y="548" width="165" height="40" as="geometry" />
        </mxCell>
        <mxCell id="LjDqyU6sl79YPEdCEnpi-12" value="" style="endArrow=classic;html=1;rounded=0;fontSize=14;fontColor=#66B2FF;" edge="1" parent="1">
          <mxGeometry width="50" height="50" relative="1" as="geometry">
            <mxPoint x="650" y="493.5" as="sourcePoint" />
            <mxPoint x="980" y="494" as="targetPoint" />
          </mxGeometry>
        </mxCell>
        <mxCell id="LjDqyU6sl79YPEdCEnpi-13" value="&lt;p style=&quot;line-height: 140%;&quot;&gt;&lt;span style=&quot;font-size: 14px;&quot;&gt;trigger the workflow when event is received by the eventsource&lt;/span&gt;&lt;/p&gt;" style="text;strokeColor=none;align=center;fillColor=none;html=1;verticalAlign=middle;whiteSpace=wrap;rounded=0;fontFamily=Montserrat Medium;fontSource=https%3A%2F%2Ffonts.googleapis.com%2Fcss%3Ffamily%3DMontserrat%2BMedium;fontStyle=2" vertex="1" parent="1">
          <mxGeometry x="680" y="450" width="240" height="40" as="geometry" />
        </mxCell>
        <mxCell id="LjDqyU6sl79YPEdCEnpi-15" value="" style="aspect=fixed;html=1;points=[];align=center;image;fontSize=12;image=img/lib/azure2/general/Workflow.svg;fontColor=#66B2FF;" vertex="1" parent="1">
          <mxGeometry x="1000" y="445.05999999999995" width="100" height="102.94" as="geometry" />
        </mxCell>
        <mxCell id="LjDqyU6sl79YPEdCEnpi-16" value="&lt;p style=&quot;line-height: 140%;&quot;&gt;&lt;span style=&quot;font-size: 14px;&quot;&gt;argo workflow&lt;/span&gt;&lt;/p&gt;" style="text;strokeColor=none;align=center;fillColor=none;html=1;verticalAlign=middle;whiteSpace=wrap;rounded=0;fontFamily=Montserrat Medium;fontSource=https%3A%2F%2Ffonts.googleapis.com%2Fcss%3Ffamily%3DMontserrat%2BMedium;fontStyle=0;fontColor=#66B2FF;" vertex="1" parent="1">
          <mxGeometry x="967.5" y="548" width="165" height="40" as="geometry" />
        </mxCell>
        <mxCell id="LjDqyU6sl79YPEdCEnpi-17" value="" style="endArrow=classic;html=1;rounded=0;fontSize=14;fontColor=#66B2FF;entryX=0.5;entryY=1;entryDx=0;entryDy=0;" edge="1" parent="1" target="LjDqyU6sl79YPEdCEnpi-20">
          <mxGeometry width="50" height="50" relative="1" as="geometry">
            <mxPoint x="1049.5" y="440" as="sourcePoint" />
            <mxPoint x="1050" y="270" as="targetPoint" />
          </mxGeometry>
        </mxCell>
        <mxCell id="LjDqyU6sl79YPEdCEnpi-18" value="&lt;p style=&quot;line-height: 140%;&quot;&gt;&lt;span style=&quot;font-size: 14px;&quot;&gt;build and push docker image to dockerhub using buildkit&lt;/span&gt;&lt;/p&gt;" style="text;strokeColor=none;align=center;fillColor=none;html=1;verticalAlign=middle;whiteSpace=wrap;rounded=0;fontFamily=Montserrat Medium;fontSource=https%3A%2F%2Ffonts.googleapis.com%2Fcss%3Ffamily%3DMontserrat%2BMedium;fontStyle=2" vertex="1" parent="1">
          <mxGeometry x="1060" y="345" width="220" height="40" as="geometry" />
        </mxCell>
        <mxCell id="LjDqyU6sl79YPEdCEnpi-19" value="" style="shape=image;html=1;verticalAlign=top;verticalLabelPosition=bottom;labelBackgroundColor=#ffffff;imageAspect=0;aspect=fixed;image=https://cdn1.iconfinder.com/data/icons/unicons-line-vol-3/24/docker-128.png;fontSize=14;fontColor=#66B2FF;" vertex="1" parent="1">
          <mxGeometry x="1000" y="130" width="100" height="100" as="geometry" />
        </mxCell>
        <mxCell id="LjDqyU6sl79YPEdCEnpi-20" value="&lt;p style=&quot;line-height: 140%;&quot;&gt;&lt;span style=&quot;font-size: 14px;&quot;&gt;DockerHub&lt;/span&gt;&lt;/p&gt;" style="text;strokeColor=none;align=center;fillColor=none;html=1;verticalAlign=middle;whiteSpace=wrap;rounded=0;fontFamily=Montserrat Medium;fontSource=https%3A%2F%2Ffonts.googleapis.com%2Fcss%3Ffamily%3DMontserrat%2BMedium;fontStyle=0;fontColor=#66B2FF;" vertex="1" parent="1">
          <mxGeometry x="967.5" y="220" width="165" height="40" as="geometry" />
        </mxCell>
        <mxCell id="LjDqyU6sl79YPEdCEnpi-22" value="" style="endArrow=none;html=1;rounded=0;fontSize=14;fontColor=#66B2FF;" edge="1" parent="1">
          <mxGeometry width="50" height="50" relative="1" as="geometry">
            <mxPoint x="1050" y="760" as="sourcePoint" />
            <mxPoint x="1049.5" y="580" as="targetPoint" />
          </mxGeometry>
        </mxCell>
        <mxCell id="LjDqyU6sl79YPEdCEnpi-23" value="" style="endArrow=classic;html=1;rounded=0;fontSize=14;fontColor=#66B2FF;" edge="1" parent="1">
          <mxGeometry width="50" height="50" relative="1" as="geometry">
            <mxPoint x="1050" y="760" as="sourcePoint" />
            <mxPoint x="200" y="760" as="targetPoint" />
          </mxGeometry>
        </mxCell>
        <mxCell id="LjDqyU6sl79YPEdCEnpi-24" value="" style="sketch=0;html=1;dashed=0;whitespace=wrap;fillColor=#2875E2;strokeColor=#ffffff;points=[[0.005,0.63,0],[0.1,0.2,0],[0.9,0.2,0],[0.5,0,0],[0.995,0.63,0],[0.72,0.99,0],[0.5,1,0],[0.28,0.99,0]];verticalLabelPosition=bottom;align=center;verticalAlign=top;shape=mxgraph.kubernetes.icon;prIcon=pod;fontSize=14;fontColor=#66B2FF;" vertex="1" parent="1">
          <mxGeometry x="80" y="710" width="100" height="108" as="geometry" />
        </mxCell>
        <mxCell id="LjDqyU6sl79YPEdCEnpi-25" value="&lt;p style=&quot;line-height: 140%;&quot;&gt;&lt;span style=&quot;font-size: 14px;&quot;&gt;argo ImageUpdater will update container image tags in manifests&lt;/span&gt;&lt;/p&gt;" style="text;strokeColor=none;align=center;fillColor=none;html=1;verticalAlign=middle;whiteSpace=wrap;rounded=0;fontFamily=Montserrat Medium;fontSource=https%3A%2F%2Ffonts.googleapis.com%2Fcss%3Ffamily%3DMontserrat%2BMedium;fontStyle=0;fontColor=#66B2FF;" vertex="1" parent="1">
          <mxGeometry x="-0.6199999999999974" y="818" width="261.25" height="50" as="geometry" />
        </mxCell>
        <mxCell id="LjDqyU6sl79YPEdCEnpi-27" value="&lt;p style=&quot;line-height: 140%;&quot;&gt;&lt;span style=&quot;font-size: 14px;&quot;&gt;push the updated manifests to GitHub&lt;/span&gt;&lt;/p&gt;" style="text;strokeColor=none;align=center;fillColor=none;html=1;verticalAlign=middle;whiteSpace=wrap;rounded=0;fontFamily=Montserrat Medium;fontSource=https%3A%2F%2Ffonts.googleapis.com%2Fcss%3Ffamily%3DMontserrat%2BMedium;fontStyle=2" vertex="1" parent="1">
          <mxGeometry x="-30" y="630" width="150" height="30" as="geometry" />
        </mxCell>
        <mxCell id="LjDqyU6sl79YPEdCEnpi-28" value="" style="endArrow=none;html=1;rounded=0;fontSize=14;fontColor=#66B2FF;" edge="1" parent="1">
          <mxGeometry width="50" height="50" relative="1" as="geometry">
            <mxPoint x="129.51" y="110" as="sourcePoint" />
            <mxPoint x="129.51" y="-110" as="targetPoint" />
          </mxGeometry>
        </mxCell>
        <mxCell id="LjDqyU6sl79YPEdCEnpi-29" value="" style="sketch=0;html=1;dashed=0;whitespace=wrap;fillColor=#2875E2;strokeColor=#ffffff;points=[[0.005,0.63,0],[0.1,0.2,0],[0.9,0.2,0],[0.5,0,0],[0.995,0.63,0],[0.72,0.99,0],[0.5,1,0],[0.28,0.99,0]];verticalLabelPosition=bottom;align=center;verticalAlign=top;shape=mxgraph.kubernetes.icon;prIcon=pod;fontSize=14;fontColor=#66B2FF;" vertex="1" parent="1">
          <mxGeometry x="80" y="-220" width="100" height="108" as="geometry" />
        </mxCell>
        <mxCell id="LjDqyU6sl79YPEdCEnpi-30" value="&lt;p style=&quot;line-height: 140%;&quot;&gt;&lt;font style=&quot;font-size: 14px;&quot;&gt;argoCD synchronizing cluster with the manifests stored in GitHub&lt;/font&gt;&lt;/p&gt;" style="text;strokeColor=none;align=center;fillColor=none;html=1;verticalAlign=middle;whiteSpace=wrap;rounded=0;fontFamily=Montserrat Medium;fontSource=https%3A%2F%2Ffonts.googleapis.com%2Fcss%3Ffamily%3DMontserrat%2BMedium;fontColor=#66B2FF;" vertex="1" parent="1">
          <mxGeometry y="-250" width="260" height="30" as="geometry" />
        </mxCell>
        <mxCell id="LjDqyU6sl79YPEdCEnpi-31" value="&lt;p style=&quot;line-height: 140%;&quot;&gt;&lt;span style=&quot;font-size: 14px;&quot;&gt;new manifests pulled by argoCD&lt;/span&gt;&lt;/p&gt;" style="text;strokeColor=none;align=center;fillColor=none;html=1;verticalAlign=middle;whiteSpace=wrap;rounded=0;fontFamily=Montserrat Medium;fontSource=https%3A%2F%2Ffonts.googleapis.com%2Fcss%3Ffamily%3DMontserrat%2BMedium;fontStyle=2" vertex="1" parent="1">
          <mxGeometry x="-30" y="-10" width="150" height="30" as="geometry" />
        </mxCell>
      </root>
    </mxGraphModel>
  </diagram>
</mxfile>
